# xmcd
#
# Track frame offsets:
#	150
#	11740
#	22565
#	34860
#	46345
#	58102
#	71407
#	82320
#	96355
#	108210
#	120197
#	133352
#	143587
#	153865
#	165425
#	176222
#	188585
#	198980
#	213322
#	226257
#	236152
#	247175
#	257237
#	268107
#	284105
#	294157
#	307617
#	320715
#	329562
#	337810
#
# Disc length: 4664 seconds
#
# Revision: 1
# Processed by: cddbd v1.5.2PL0 Copyright (c) Steve Scherf et al.
# Submitted via: EZCDAudioConverter 1.0.8.1
#
DISCID=b112361e
DTITLE=Slim Whitman - Rose Marie -Disc 5 of 6
DYEAR=1996
DGENRE=Country
TTITLE0=Wherever You Are
TTITLE1=I'll Sail My Ship Alone
TTITLE2=River Of Tears
TTITLE3=Blues Stay Away From Me
TTITLE4=A Fool Such As I
TTITLE5=The Letter Edged in Black
TTITLE6=Too Tired To Care
TTITLE7=A Tree In The Meadow
TTITLE8=The Prisoner's Song
TTITLE9=Heartbreak Hill
TTITLE10=I'll Never See Maggie Alone
TTITLE11=When I Call On You
TTITLE12=You're The Only One
TTITLE13=Blues Stay Away from Me
TTITLE14=I'll Sail My Ship Alone
TTITLE15=What Kind of God (Do You Think You Are)
TTITLE16=A Tree In The Meadow
TTITLE17=I'll Walk With God
TTITLE18=Whispering Hope
TTITLE19=I'm A Pilgrim
TTITLE20=An Evening Prayer
TTITLE21=Jesus Took My Burden
TTITLE22=Two Loves Have I
TTITLE23=Sunrise
TTITLE24=Walk Beside Me
TTITLE25=Each Step I Take
TTITLE26=The Great Judgement Morning
TTITLE27=He Lives On High
TTITLE28=Today Is Mine
TTITLE29=When I Go To My Garden
EXTD=
EXTT0=
EXTT1=
EXTT2=
EXTT3=
EXTT4=
EXTT5=
EXTT6=
EXTT7=
EXTT8=
EXTT9=
EXTT10=
EXTT11=
EXTT12=
EXTT13=
EXTT14=
EXTT15=
EXTT16=
EXTT17=
EXTT18=
EXTT19=
EXTT20=
EXTT21=
EXTT22=
EXTT23=
EXTT24=
EXTT25=
EXTT26=
EXTT27=
EXTT28=
EXTT29=
PLAYORDER=
